<?xml version="1.0" encoding="UTF-8" standalone="no"?><!-- Generator: Gravit.io --><svg xmlns="http://www.w3.org/2000/svg" xmlns:xlink="http://www.w3.org/1999/xlink" style="isolation:isolate" viewBox="0 0 200 140" width="200pt" height="140pt"><defs><clipPath id="_clipPath_elY0QmAqxn0ZKt9IYvMnEzS4lygsCYw2"><rect width="200" height="140"/></clipPath></defs><g clip-path="url(#_clipPath_elY0QmAqxn0ZKt9IYvMnEzS4lygsCYw2)"><rect x="84.137" y="48.576" width="7.34" height="36.702" transform="matrix(1,0,0,1,0,0)" fill="rgb(246,206,69)"/><rect x="92.773" y="40.804" width="7.34" height="44.258" transform="matrix(1,0,0,1,0,0)" fill="rgb(246,206,69)"/><rect x="101.409" y="48.576" width="7.34" height="36.702" transform="matrix(1,0,0,1,0,0)" fill="rgb(246,206,69)"/><path d=" M 73.991 49.871 L 66.65 43.394 L 66.65 24.612 L 73.991 24.612 L 73.991 49.871" fill="rgb(0,0,0)"/><path d=" M 82.626 58.075 L 75.286 50.951 L 75.286 16.192 L 82.626 16.192 L 82.626 58.075" fill="rgb(0,0,0)"/><rect x="84.137" y="8.204" width="7.34" height="39.292" transform="matrix(1,0,0,1,0,0)" fill="rgb(0,0,0)"/><rect x="92.773" y="0" width="7.34" height="39.292" transform="matrix(1,0,0,1,0,0)" fill="rgb(0,0,0)"/><path d=" M 118.896 49.871 L 126.236 43.394 L 126.236 24.612 L 118.896 24.612 L 118.896 49.871" fill="rgb(0,0,0)"/><path d=" M 110.26 58.075 L 117.601 50.951 L 117.601 16.192 L 110.26 16.192 L 110.26 58.075" fill="rgb(0,0,0)"/><rect x="101.409" y="8.204" width="7.34" height="39.292" transform="matrix(1,0,0,1,0,0)" fill="rgb(0,0,0)"/><g><path d=" M 40.311 107.082 C 40.311 106.003 40.095 105.355 39.664 104.924 C 39.232 104.492 38.368 104.276 36.857 104.276 L 33.619 104.276 C 32.323 104.276 31.244 104.492 30.812 105.139 C 30.38 105.571 30.164 106.435 30.164 107.298 L 30.164 111.616 C 30.164 112.48 30.38 113.343 30.812 113.775 C 31.244 114.207 32.107 114.639 33.619 114.639 L 36.857 114.639 C 38.368 114.639 39.232 114.423 39.664 113.991 C 40.095 113.559 40.311 112.696 40.311 111.832 L 40.311 107.082 Z  M 44.629 117.229 C 43.766 118.093 42.039 118.525 39.448 118.525 L 31.244 118.525 C 28.653 118.525 27.142 118.093 26.062 117.229 C 25.199 116.366 24.551 115.07 24.551 113.127 L 24.551 105.139 C 24.551 103.412 24.983 101.901 26.062 101.037 C 26.926 100.174 28.653 99.742 31.244 99.742 L 39.448 99.742 C 42.039 99.742 43.766 100.174 44.629 101.037 C 45.493 101.901 45.925 103.196 45.925 104.924 L 45.925 112.912 C 45.925 114.855 45.493 116.366 44.629 117.229 Z " fill="rgb(0,0,0)"/><path d=" M 69.025 117.229 C 68.161 118.093 66.434 118.525 63.844 118.525 L 55.856 118.525 C 53.481 118.525 51.754 118.093 50.674 117.229 C 49.811 116.366 49.163 115.07 49.163 113.127 L 49.163 105.139 C 49.163 103.412 49.595 101.901 50.674 101.037 C 51.538 100.174 53.265 99.742 55.856 99.742 L 64.059 99.742 C 66.65 99.742 68.161 100.174 69.241 101.037 C 70.104 101.901 70.536 103.196 70.536 104.924 L 70.536 106.867 L 64.923 106.867 C 64.923 105.787 64.707 105.139 64.275 104.708 C 63.844 104.276 62.98 104.06 61.469 104.06 L 58.23 104.06 C 56.935 104.06 55.856 104.276 55.424 104.924 C 54.992 105.355 54.776 106.219 54.776 107.082 L 54.776 111.4 C 54.776 112.264 54.992 113.127 55.424 113.559 C 55.856 113.991 56.719 114.423 58.23 114.423 L 61.469 114.423 C 62.98 114.423 63.844 114.207 64.275 113.775 C 64.707 113.343 64.923 112.48 64.923 111.616 L 70.536 111.616 L 70.536 113.559 C 70.536 114.855 70.104 116.366 69.025 117.229 Z " fill="rgb(0,0,0)"/><path d=" M 79.388 118.525 L 73.775 118.525 L 73.775 113.127 L 73.775 105.355 L 73.775 99.958 L 79.388 99.958 L 79.388 107.082 L 89.535 107.082 L 89.535 99.958 L 95.148 99.958 L 95.148 118.525 L 89.535 118.525 L 89.535 111.4 L 79.388 111.4 L 79.388 118.525" fill="rgb(0,0,0)"/><path d=" M 105.511 111.4 L 104 111.4 C 104 112.48 104.215 113.127 104.647 113.559 C 105.079 113.991 105.943 114.423 107.454 114.423 L 119.76 114.423 L 119.76 118.741 L 105.079 118.741 C 102.704 118.741 100.977 118.309 99.898 117.445 C 99.034 116.582 98.386 115.286 98.386 113.343 L 98.386 105.355 C 98.386 103.628 98.818 102.117 99.898 101.253 C 100.761 100.39 102.488 99.958 105.079 99.958 L 119.76 99.958 L 119.76 104.276 L 107.454 104.276 C 106.158 104.276 105.079 104.492 104.647 105.139 C 104.215 105.571 104 106.435 104 107.298 L 119.76 107.298 L 119.76 111.616 L 105.511 111.616" fill="rgb(0,0,0)"/><path d=" M 162.722 104.06 L 155.166 104.06 L 155.166 99.958 L 176.323 99.958 L 176.323 104.06 L 168.335 104.06 L 168.335 118.525 L 162.722 118.525 L 162.722 104.06" fill="rgb(0,0,0)"/><path d=" M 128.395 109.241 C 128.395 106.867 130.338 107.082 130.338 107.082 L 135.952 107.082 L 135.952 110.969 L 130.338 110.969 C 130.122 111.184 128.395 111.184 128.395 109.241 Z  M 147.178 111.184 L 141.565 111.184 L 141.565 107.298 L 147.178 107.298 C 147.178 107.298 149.121 107.082 149.121 109.457 C 149.121 111.184 147.178 111.184 147.178 111.184 Z  M 150.2 103.196 L 141.565 103.196 L 141.565 99.742 L 135.952 99.742 L 135.952 103.196 L 127.1 103.196 C 127.1 103.196 122.134 103.412 122.134 109.025 C 122.134 114.639 127.316 114.855 127.316 114.855 L 135.952 114.855 L 135.952 118.525 L 141.565 118.525 L 141.565 114.855 L 149.985 114.855 C 149.985 114.855 155.166 114.855 155.166 109.025 C 155.166 103.412 150.2 103.196 150.2 103.196 Z " fill="rgb(0,0,0)"/><path d=" M 13.973 107.946 L 5.769 107.946 L 5.769 104.276 L 13.973 104.276 C 15.052 104.276 15.916 105.139 15.916 106.219 C 15.7 107.082 15.052 107.946 13.973 107.946 Z  M 20.018 101.253 C 19.154 100.39 17.427 99.958 14.836 99.958 L 0.155 99.958 L 0.155 118.741 L 5.769 118.741 L 5.769 112.264 L 14.836 112.264 C 17.427 112.264 18.938 111.832 20.018 110.969 C 20.881 110.105 21.313 108.594 21.313 106.867 L 21.313 105.355 C 21.313 103.628 20.881 102.117 20.018 101.253 Z " fill="rgb(0,0,0)"/><path d=" M 194.458 112.48 C 194.458 113.559 193.595 114.423 192.515 114.423 L 184.311 114.423 L 184.311 110.753 L 192.515 110.753 C 193.811 110.537 194.458 111.4 194.458 112.48 Z  M 200.071 113.127 L 200.071 111.616 C 200.071 109.889 199.64 108.594 198.776 107.514 C 197.913 106.651 196.185 106.219 193.595 106.219 L 184.311 106.219 L 184.311 99.742 L 178.914 99.742 L 178.914 118.525 L 193.595 118.525 C 196.185 118.525 197.697 118.093 198.776 117.229 C 199.64 116.366 200.071 114.855 200.071 113.127 Z " fill="rgb(0,0,0)"/></g><rect x="0" y="99.958" width="200.071" height="44.042" transform="matrix(1,0,0,1,0,0)" fill="none"/><path d=" M 84.353 132.99 L 89.846 127.497 L 91.685 129.337 L 88.032 132.99 L 91.685 136.642 L 89.846 138.482 L 84.353 132.99 Z  M 89.794 132.99 L 95.286 127.497 L 97.126 129.337 L 93.473 132.99 L 97.126 136.642 L 95.286 138.482 L 89.794 132.99 Z  M 110.606 139.466 L 114.285 139.466 L 114.285 130.58 L 114.285 130.58 Q 114.285 128.922 113.067 127.756 L 113.067 127.756 L 113.067 127.756 Q 111.823 126.513 110.217 126.513 L 110.217 126.513 L 104.751 126.513 L 104.751 126.513 Q 103.067 126.513 101.875 127.756 L 101.875 127.756 L 101.875 127.756 Q 100.658 128.896 100.658 130.58 L 100.658 130.58 L 100.658 135.321 L 100.658 135.321 Q 100.658 135.502 100.528 135.645 L 100.528 135.645 L 100.528 135.645 Q 100.398 135.787 100.217 135.787 L 100.217 135.787 L 98.999 135.787 L 98.999 139.466 L 100.269 139.466 L 100.269 139.466 Q 101.901 139.466 103.119 138.249 L 103.119 138.249 L 103.119 138.249 Q 103.715 137.627 104.025 136.914 L 104.025 136.914 L 104.025 136.914 Q 104.336 136.202 104.336 135.373 L 104.336 135.373 L 104.336 130.658 L 104.336 130.658 Q 104.336 130.477 104.466 130.347 L 104.466 130.347 L 104.466 130.347 Q 104.595 130.217 104.777 130.217 L 104.777 130.217 L 110.165 130.217 L 110.165 130.217 Q 110.321 130.217 110.463 130.347 L 110.463 130.347 L 110.463 130.347 Q 110.606 130.477 110.606 130.658 L 110.606 130.658 L 110.606 139.466 Z  M 120.286 130.658 L 120.286 133.482 L 128.188 133.482 L 128.188 130.658 L 128.188 130.658 Q 128.188 130.477 128.059 130.347 L 128.059 130.347 L 128.059 130.347 Q 127.929 130.217 127.748 130.217 L 127.748 130.217 L 120.753 130.217 L 120.753 130.217 Q 120.571 130.217 120.429 130.347 L 120.429 130.347 L 120.429 130.347 Q 120.286 130.477 120.286 130.658 L 120.286 130.658 Z  M 131.867 130.606 L 131.867 139.466 L 128.188 139.466 L 128.188 137.161 L 120.286 137.161 L 120.286 139.466 L 116.582 139.466 L 116.582 130.606 L 116.582 130.606 Q 116.582 128.948 117.825 127.756 L 117.825 127.756 L 117.825 127.756 Q 119.017 126.513 120.701 126.513 L 120.701 126.513 L 127.799 126.513 L 127.799 126.513 Q 129.406 126.513 130.649 127.756 L 130.649 127.756 L 130.649 127.756 Q 131.867 128.922 131.867 130.606 L 131.867 130.606 Z  M 142.713 130.217 L 137.558 130.217 L 137.558 131.124 L 143.102 131.124 L 143.102 130.658 L 143.102 130.658 Q 143.102 130.477 142.998 130.347 L 142.998 130.347 L 142.998 130.347 Q 142.895 130.217 142.713 130.217 L 142.713 130.217 Z  M 145.459 135.321 L 145.459 135.321 L 145.459 135.321 Q 145.459 135.114 145.33 134.971 L 145.33 134.971 L 145.33 134.971 Q 145.2 134.829 145.019 134.829 L 145.019 134.829 L 137.558 134.829 L 137.558 135.787 L 145.019 135.787 L 145.019 135.787 Q 145.174 135.787 145.317 135.645 L 145.317 135.645 L 145.317 135.645 Q 145.459 135.502 145.459 135.321 Z  M 133.853 139.466 L 133.853 126.513 L 142.765 126.513 L 142.765 126.513 Q 144.423 126.513 145.589 127.756 L 145.589 127.756 L 145.589 127.756 Q 146.833 128.948 146.833 130.58 L 146.833 130.58 L 146.833 131.591 L 146.833 131.591 Q 147.817 132.083 148.478 133.093 L 148.478 133.093 L 148.478 133.093 Q 149.138 134.104 149.138 135.218 L 149.138 135.218 L 149.138 135.218 Q 149.138 136.176 148.827 136.901 L 148.827 136.901 L 148.827 136.901 Q 148.516 137.627 147.921 138.249 L 147.921 138.249 L 147.921 138.249 Q 146.651 139.466 145.071 139.466 L 145.071 139.466 L 133.853 139.466 Z  M 166.41 126.513 L 166.41 139.466 L 162.731 139.466 L 162.731 134.829 L 154.829 134.829 L 154.829 139.466 L 151.124 139.466 L 151.124 126.513 L 154.829 126.513 L 154.829 131.124 L 162.731 131.124 L 162.731 126.513 L 166.41 126.513 Z  M 172.101 130.658 L 172.101 133.482 L 180.002 133.482 L 180.002 130.658 L 180.002 130.658 Q 180.002 130.477 179.873 130.347 L 179.873 130.347 L 179.873 130.347 Q 179.743 130.217 179.562 130.217 L 179.562 130.217 L 172.567 130.217 L 172.567 130.217 Q 172.385 130.217 172.243 130.347 L 172.243 130.347 L 172.243 130.347 Q 172.101 130.477 172.101 130.658 L 172.101 130.658 Z  M 183.681 130.606 L 183.681 139.466 L 180.002 139.466 L 180.002 137.161 L 172.101 137.161 L 172.101 139.466 L 168.396 139.466 L 168.396 130.606 L 168.396 130.606 Q 168.396 128.948 169.639 127.756 L 169.639 127.756 L 169.639 127.756 Q 170.831 126.513 172.515 126.513 L 172.515 126.513 L 179.614 126.513 L 179.614 126.513 Q 181.22 126.513 182.463 127.756 L 182.463 127.756 L 182.463 127.756 Q 183.681 128.922 183.681 130.606 L 183.681 130.606 Z  M 198.569 132.99 L 193.077 127.497 L 191.237 129.337 L 194.89 132.99 L 191.237 136.642 L 193.077 138.482 L 198.569 132.99 Z  M 193.128 132.99 L 187.636 127.497 L 185.797 129.337 L 189.45 132.99 L 185.797 136.642 L 187.636 138.482 L 193.128 132.99 Z  M 34.698 132.99 L 40.19 127.497 L 42.03 129.337 L 38.377 132.99 L 42.03 136.642 L 40.19 138.482 L 34.698 132.99 Z  M 40.139 132.99 L 45.631 127.497 L 47.47 129.337 L 43.817 132.99 L 47.47 136.642 L 45.631 138.482 L 40.139 132.99 Z  M 64.94 126.513 L 64.94 139.466 L 61.262 139.466 L 61.262 134.829 L 53.36 134.829 L 53.36 139.466 L 49.655 139.466 L 49.655 126.513 L 53.36 126.513 L 53.36 131.124 L 61.262 131.124 L 61.262 126.513 L 64.94 126.513 Z  M 81.901 126.513 L 81.901 130.217 L 76.124 130.217 L 76.124 139.466 L 72.419 139.466 L 72.419 130.217 L 66.616 130.217 L 66.616 126.513 L 81.901 126.513 Z  M 3.705 130.658 L 3.705 133.482 L 11.606 133.482 L 11.606 130.658 L 11.606 130.658 Q 11.606 130.477 11.477 130.347 L 11.477 130.347 L 11.477 130.347 Q 11.347 130.217 11.166 130.217 L 11.166 130.217 L 4.171 130.217 L 4.171 130.217 Q 3.99 130.217 3.847 130.347 L 3.847 130.347 L 3.847 130.347 Q 3.705 130.477 3.705 130.658 L 3.705 130.658 Z  M 15.285 130.606 L 15.285 139.466 L 11.606 139.466 L 11.606 137.161 L 3.705 137.161 L 3.705 139.466 L 0 139.466 L 0 130.606 L 0 130.606 Q 0 128.948 1.244 127.756 L 1.244 127.756 L 1.244 127.756 Q 2.435 126.513 4.119 126.513 L 4.119 126.513 L 11.218 126.513 L 11.218 126.513 Q 12.824 126.513 14.068 127.756 L 14.068 127.756 L 14.068 127.756 Q 15.285 128.922 15.285 130.606 L 15.285 130.606 Z  M 28.878 135.321 L 28.878 130.658 L 28.878 130.658 Q 28.878 130.477 28.748 130.347 L 28.748 130.347 L 28.748 130.347 Q 28.619 130.217 28.437 130.217 L 28.437 130.217 L 21.442 130.217 L 21.442 130.217 Q 21.261 130.217 21.119 130.347 L 21.119 130.347 L 21.119 130.347 Q 20.976 130.477 20.976 130.658 L 20.976 130.658 L 20.976 135.321 L 20.976 135.321 Q 20.976 135.502 21.119 135.645 L 21.119 135.645 L 21.119 135.645 Q 21.261 135.787 21.442 135.787 L 21.442 135.787 L 28.437 135.787 L 28.437 135.787 Q 28.593 135.787 28.735 135.645 L 28.735 135.645 L 28.735 135.645 Q 28.878 135.502 28.878 135.321 L 28.878 135.321 Z  M 32.557 130.606 L 32.557 135.373 L 32.557 135.373 Q 32.557 136.979 31.339 138.249 L 31.339 138.249 L 31.339 138.249 Q 30.069 139.466 28.489 139.466 L 28.489 139.466 L 21.391 139.466 L 21.391 139.466 Q 19.707 139.466 18.515 138.275 L 18.515 138.275 L 18.515 138.275 Q 17.271 136.979 17.271 135.373 L 17.271 135.373 L 17.271 130.606 L 17.271 130.606 Q 17.271 128.948 18.515 127.756 L 18.515 127.756 L 18.515 127.756 Q 19.707 126.513 21.391 126.513 L 21.391 126.513 L 28.489 126.513 L 28.489 126.513 Q 30.095 126.513 31.339 127.756 L 31.339 127.756 L 31.339 127.756 Q 32.557 128.922 32.557 130.606 L 32.557 130.606 Z " fill="rgb(102,109,117)"/></g></svg>