<?xml version="1.0" encoding="UTF-8" standalone="no"?><!-- Generator: Gravit.io --><svg xmlns="http://www.w3.org/2000/svg" xmlns:xlink="http://www.w3.org/1999/xlink" style="isolation:isolate" viewBox="0 0 168 107" width="168pt" height="107pt"><defs><clipPath id="_clipPath_NPPMLjLw6XcC5cPTVn4eAqcErxG0wYWQ"><rect width="168" height="107"/></clipPath></defs><g clip-path="url(#_clipPath_NPPMLjLw6XcC5cPTVn4eAqcErxG0wYWQ)"><g><rect x="71.831" y="48.576" width="7.34" height="36.702" transform="matrix(1,0,0,1,0,0)" fill="rgb(246,206,69)"/><rect x="80.467" y="40.804" width="7.34" height="44.258" transform="matrix(1,0,0,1,0,0)" fill="rgb(246,206,69)"/><rect x="89.103" y="48.576" width="7.34" height="36.702" transform="matrix(1,0,0,1,0,0)" fill="rgb(246,206,69)"/><path d=" M 61.685 49.871 L 54.344 43.394 L 54.344 24.612 L 61.685 24.612 L 61.685 49.871 Z " fill="rgb(0,0,0)"/><path d=" M 70.32 58.075 L 62.98 50.951 L 62.98 16.192 L 70.32 16.192 L 70.32 58.075 Z " fill="rgb(0,0,0)"/><rect x="71.831" y="8.204" width="7.34" height="39.292" transform="matrix(1,0,0,1,0,0)" fill="rgb(0,0,0)"/><rect x="80.467" y="0" width="7.34" height="39.292" transform="matrix(1,0,0,1,0,0)" fill="rgb(0,0,0)"/><path d=" M 106.59 49.871 L 113.93 43.394 L 113.93 24.612 L 106.59 24.612 L 106.59 49.871 Z " fill="rgb(0,0,0)"/><path d=" M 97.954 58.075 L 105.295 50.951 L 105.295 16.192 L 97.954 16.192 L 97.954 58.075 Z " fill="rgb(0,0,0)"/><rect x="89.103" y="8.204" width="7.34" height="39.292" transform="matrix(1,0,0,1,0,0)" fill="rgb(0,0,0)"/><path d=" M 70.645 101.438 L 73.209 96.58 L 75.47 97.796 L 73.546 101.438 L 75.47 104.817 L 73.326 106.136 L 70.645 101.438 Z  M 75.108 101.438 L 77.667 96.58 L 79.928 97.796 L 78.009 101.438 L 79.928 104.817 L 77.789 106.136 L 75.108 101.438 Z  M 83.628 101.717 L 83.628 91.878 L 95.786 91.878 L 95.786 106.878 L 91.767 106.878 L 91.767 95.359 L 87.427 95.359 L 87.427 101.658 L 87.427 101.658 Q 87.427 103.323 86.938 104.52 L 86.938 104.52 L 86.938 104.52 Q 86.45 105.716 85.449 106.358 L 85.449 106.358 L 85.449 106.358 Q 84.448 107 82.969 107 L 82.969 107 L 82.969 107 Q 81.885 107 80.928 106.819 L 80.928 106.819 L 80.928 103.577 L 80.928 103.577 Q 81.347 103.719 82.148 103.719 L 82.148 103.719 L 82.148 103.719 Q 82.969 103.719 83.298 103.274 L 83.298 103.274 L 83.298 103.274 Q 83.628 102.83 83.628 101.717 L 83.628 101.717 Z  M 107.548 106.878 L 106.766 104.3 L 101.386 104.3 L 100.648 106.878 L 96.488 106.878 L 100.985 91.878 L 107.069 91.878 L 111.63 106.878 L 107.548 106.878 Z  M 102.245 101.38 L 105.966 101.38 L 104.105 94.876 L 104.066 94.876 L 102.245 101.38 Z  M 120.887 106.878 L 112.929 106.878 L 112.929 91.878 L 120.809 91.878 L 120.809 91.878 Q 122.435 91.878 123.449 92.171 L 123.449 92.171 L 123.449 92.171 Q 124.462 92.464 125.004 93.304 L 125.004 93.304 L 125.004 93.304 Q 125.546 94.144 125.546 95.716 L 125.546 95.716 L 125.546 95.716 Q 125.546 96.766 125.36 97.452 L 125.36 97.452 L 125.36 97.452 Q 125.175 98.138 124.657 98.58 L 124.657 98.58 L 124.657 98.58 Q 124.139 99.021 123.187 99.178 L 123.187 99.178 L 123.187 99.339 L 123.187 99.339 Q 124.242 99.402 124.813 99.83 L 124.813 99.83 L 124.813 99.83 Q 125.385 100.257 125.585 100.95 L 125.585 100.95 L 125.585 100.95 Q 125.785 101.644 125.785 102.698 L 125.785 102.698 L 125.785 102.698 Q 125.785 104.471 125.243 105.379 L 125.243 105.379 L 125.243 105.379 Q 124.701 106.287 123.676 106.583 L 123.676 106.583 L 123.676 106.583 Q 122.65 106.878 120.887 106.878 L 120.887 106.878 Z  M 120.287 95.159 L 116.928 95.159 L 116.928 97.879 L 119.808 97.879 L 119.808 97.879 Q 120.551 97.879 120.905 97.767 L 120.905 97.767 L 120.905 97.767 Q 121.259 97.654 121.403 97.352 L 121.403 97.352 L 121.403 97.352 Q 121.547 97.049 121.547 96.438 L 121.547 96.438 L 121.547 96.438 Q 121.547 95.721 121.3 95.44 L 121.3 95.44 L 121.3 95.44 Q 121.054 95.159 120.287 95.159 L 120.287 95.159 Z  M 120.028 100.657 L 116.928 100.657 L 116.928 103.597 L 119.945 103.597 L 119.945 103.597 Q 120.619 103.597 121.017 103.47 L 121.017 103.47 L 121.017 103.47 Q 121.415 103.343 121.6 103.013 L 121.6 103.013 L 121.6 103.013 Q 121.786 102.684 121.786 102.078 L 121.786 102.078 L 121.786 102.078 Q 121.786 101.185 121.42 100.921 L 121.42 100.921 L 121.42 100.921 Q 121.054 100.657 120.028 100.657 L 120.028 100.657 Z  M 137.225 91.878 L 141.229 91.878 L 141.229 106.878 L 137.225 106.878 L 137.225 100.999 L 132.006 100.999 L 132.006 106.878 L 128.007 106.878 L 128.007 91.878 L 132.006 91.878 L 132.006 97.518 L 137.225 97.518 L 137.225 91.878 Z  M 153.548 106.878 L 152.766 104.3 L 147.386 104.3 L 146.648 106.878 L 142.488 106.878 L 146.985 91.878 L 153.069 91.878 L 157.63 106.878 L 153.548 106.878 Z  M 148.245 101.38 L 151.966 101.38 L 150.105 94.876 L 150.066 94.876 L 148.245 101.38 Z  M 167.786 101.277 L 165.227 106.136 L 162.967 104.92 L 164.886 101.277 L 162.967 97.898 L 165.105 96.58 L 167.786 101.277 Z  M 163.328 101.277 L 160.769 106.136 L 158.509 104.92 L 160.428 101.277 L 158.509 97.898 L 160.647 96.58 L 163.328 101.277 Z  M 31.645 101.438 L 34.209 96.58 L 36.47 97.796 L 34.546 101.438 L 36.47 104.817 L 34.326 106.136 L 31.645 101.438 Z  M 36.108 101.438 L 38.667 96.58 L 40.928 97.796 L 39.009 101.438 L 40.928 104.817 L 38.789 106.136 L 36.108 101.438 Z  M 52.225 91.878 L 56.229 91.878 L 56.229 106.878 L 52.225 106.878 L 52.225 100.999 L 47.006 100.999 L 47.006 106.878 L 43.007 106.878 L 43.007 91.878 L 47.006 91.878 L 47.006 97.518 L 52.225 97.518 L 52.225 91.878 Z  M 69.627 95.359 L 65.589 95.359 L 65.589 106.878 L 61.59 106.878 L 61.59 95.359 L 57.747 95.359 L 57.747 91.878 L 69.627 91.878 L 69.627 95.359 Z  M 11.548 106.878 L 10.766 104.3 L 5.386 104.3 L 4.648 106.878 L 0.488 106.878 L 4.985 91.878 L 11.069 91.878 L 15.63 106.878 L 11.548 106.878 Z  M 6.245 101.38 L 9.966 101.38 L 8.105 94.876 L 8.066 94.876 L 6.245 101.38 Z  M 23.325 107 L 23.325 107 L 23.325 107 Q 21.66 107 20.429 106.771 L 20.429 106.771 L 20.429 106.771 Q 19.199 106.541 18.291 105.948 L 18.291 105.948 L 18.291 105.948 Q 17.383 105.354 16.885 104.263 L 16.885 104.263 L 16.885 104.263 Q 16.387 103.172 16.387 101.497 L 16.387 101.497 L 16.387 97.259 L 16.387 97.259 Q 16.387 95.584 16.887 94.488 L 16.887 94.488 L 16.887 94.488 Q 17.387 93.392 18.293 92.803 L 18.293 92.803 L 18.293 92.803 Q 19.199 92.215 20.429 91.985 L 20.429 91.985 L 20.429 91.985 Q 21.66 91.756 23.325 91.756 L 23.325 91.756 L 23.325 91.756 Q 24.995 91.756 26.228 91.985 L 26.228 91.985 L 26.228 91.985 Q 27.461 92.215 28.366 92.803 L 28.366 92.803 L 28.366 92.803 Q 29.272 93.392 29.77 94.488 L 29.77 94.488 L 29.77 94.488 Q 30.268 95.584 30.268 97.259 L 30.268 97.259 L 30.268 101.497 L 30.268 101.497 Q 30.268 103.172 29.773 104.263 L 29.773 104.263 L 29.773 104.263 Q 29.277 105.354 28.369 105.948 L 28.369 105.948 L 28.369 105.948 Q 27.461 106.541 26.228 106.771 L 26.228 106.771 L 26.228 106.771 Q 24.995 107 23.325 107 Z  M 23.325 103.519 L 23.325 103.519 L 23.325 103.519 Q 24.472 103.519 25.046 103.36 L 25.046 103.36 L 25.046 103.36 Q 25.62 103.201 25.884 102.679 L 25.884 102.679 L 25.884 102.679 Q 26.147 102.156 26.147 101.058 L 26.147 101.058 L 26.147 97.679 L 26.147 97.679 Q 26.147 96.834 25.998 96.353 L 25.998 96.353 L 25.998 96.353 Q 25.849 95.872 25.527 95.63 L 25.527 95.63 L 25.527 95.63 Q 25.205 95.389 24.695 95.313 L 24.695 95.313 L 24.695 95.313 Q 24.184 95.237 23.325 95.237 L 23.325 95.237 L 23.325 95.237 Q 22.187 95.237 21.626 95.394 L 21.626 95.394 L 21.626 95.394 Q 21.064 95.55 20.801 96.063 L 20.801 96.063 L 20.801 96.063 Q 20.537 96.575 20.508 97.679 L 20.508 97.679 L 20.508 101.058 L 20.508 101.058 Q 20.537 102.166 20.798 102.684 L 20.798 102.684 L 20.798 102.684 Q 21.059 103.201 21.623 103.36 L 21.623 103.36 L 21.623 103.36 Q 22.187 103.519 23.325 103.519 Z " fill="rgb(0,0,0)"/></g></g></svg>