<?xml version="1.0" encoding="UTF-8" standalone="no"?><!-- Generator: Gravit.io -->
<svg xmlns="http://www.w3.org/2000/svg" xmlns:xlink="http://www.w3.org/1999/xlink" style="isolation:isolate"
     viewBox="0 0 200 120" width="200pt" height="120pt">
    <defs>
        <clipPath id="_clipPath_jdtB7LK6CFI3HsFdZ13ZV16kqrUmrSh2">
            <rect width="200" height="120"/>
        </clipPath>
    </defs>
    <g clip-path="url(#_clipPath_jdtB7LK6CFI3HsFdZ13ZV16kqrUmrSh2)">
        <rect x="84.264" y="49.367" width="7.23" height="36.151" transform="matrix(1,0,0,1,0,0)"
              fill="rgb(246,206,69)"/>
        <rect x="92.77" y="41.712" width="7.23" height="43.594" transform="matrix(1,0,0,1,0,0)" fill="rgb(246,206,69)"/>
        <rect x="101.276" y="49.367" width="7.23" height="36.151" transform="matrix(1,0,0,1,0,0)"
              fill="rgb(246,206,69)"/>
        <path d=" M 74.269 50.643 L 67.039 44.264 L 67.039 25.763 L 74.269 25.763 L 74.269 50.643" fill="rgb(0,0,0)"/>
        <path d=" M 82.775 58.724 L 75.545 51.707 L 75.545 17.47 L 82.775 17.47 L 82.775 58.724" fill="rgb(0,0,0)"/>
        <rect x="84.264" y="9.601" width="7.23" height="38.703" transform="matrix(1,0,0,1,0,0)" fill="rgb(0,0,0)"/>
        <rect x="92.77" y="1.521" width="7.23" height="38.703" transform="matrix(1,0,0,1,0,0)" fill="rgb(0,0,0)"/>
        <path d=" M 118.501 50.643 L 125.731 44.264 L 125.731 25.763 L 118.501 25.763 L 118.501 50.643"
              fill="rgb(0,0,0)"/>
        <path d=" M 109.995 58.724 L 117.225 51.707 L 117.225 17.47 L 109.995 17.47 L 109.995 58.724"
              fill="rgb(0,0,0)"/>
        <rect x="101.276" y="9.601" width="7.23" height="38.703" transform="matrix(1,0,0,1,0,0)" fill="rgb(0,0,0)"/>
        <g>
            <path d=" M 41.095 106.996 C 41.095 105.933 40.883 105.295 40.457 104.87 C 40.032 104.444 39.181 104.232 37.693 104.232 L 34.503 104.232 C 33.227 104.232 32.164 104.444 31.739 105.082 C 31.313 105.508 31.101 106.358 31.101 107.209 L 31.101 111.462 C 31.101 112.312 31.313 113.163 31.739 113.588 C 32.164 114.014 33.015 114.439 34.503 114.439 L 37.693 114.439 C 39.181 114.439 40.032 114.226 40.457 113.801 C 40.883 113.376 41.095 112.525 41.095 111.675 L 41.095 106.996 Z  M 45.348 116.991 C 44.498 117.841 42.797 118.267 40.245 118.267 L 32.164 118.267 C 29.612 118.267 28.124 117.841 27.06 116.991 C 26.21 116.14 25.572 114.864 25.572 112.95 L 25.572 105.082 C 25.572 103.381 25.997 101.893 27.06 101.042 C 27.911 100.191 29.612 99.766 32.164 99.766 L 40.245 99.766 C 42.797 99.766 44.498 100.191 45.348 101.042 C 46.199 101.893 46.624 103.168 46.624 104.87 L 46.624 112.738 C 46.624 114.652 46.199 116.14 45.348 116.991 Z "
                  fill="rgb(0,0,0)"/>
            <path d=" M 69.378 116.991 C 68.527 117.841 66.826 118.267 64.274 118.267 L 56.406 118.267 C 54.067 118.267 52.366 117.841 51.303 116.991 C 50.452 116.14 49.814 114.864 49.814 112.95 L 49.814 105.082 C 49.814 103.381 50.239 101.893 51.303 101.042 C 52.153 100.191 53.854 99.766 56.406 99.766 L 64.487 99.766 C 67.039 99.766 68.527 100.191 69.591 101.042 C 70.441 101.893 70.867 103.168 70.867 104.87 L 70.867 106.784 L 65.338 106.784 C 65.338 105.72 65.125 105.082 64.7 104.657 C 64.274 104.232 63.424 104.019 61.935 104.019 L 58.745 104.019 C 57.47 104.019 56.406 104.232 55.981 104.87 C 55.556 105.295 55.343 106.146 55.343 106.996 L 55.343 111.249 C 55.343 112.1 55.556 112.95 55.981 113.376 C 56.406 113.801 57.257 114.226 58.745 114.226 L 61.935 114.226 C 63.424 114.226 64.274 114.014 64.7 113.588 C 65.125 113.163 65.338 112.312 65.338 111.462 L 70.867 111.462 L 70.867 113.376 C 70.867 114.652 70.441 116.14 69.378 116.991 Z "
                  fill="rgb(0,0,0)"/>
            <path d=" M 79.585 118.267 L 74.056 118.267 L 74.056 112.95 L 74.056 105.295 L 74.056 99.979 L 79.585 99.979 L 79.585 106.996 L 89.58 106.996 L 89.58 99.979 L 95.109 99.979 L 95.109 118.267 L 89.58 118.267 L 89.58 111.249 L 79.585 111.249 L 79.585 118.267"
                  fill="rgb(0,0,0)"/>
            <path d=" M 105.316 111.249 L 103.828 111.249 C 103.828 112.312 104.04 112.95 104.466 113.376 C 104.891 113.801 105.742 114.226 107.23 114.226 L 119.351 114.226 L 119.351 118.479 L 104.891 118.479 C 102.552 118.479 100.851 118.054 99.787 117.203 C 98.937 116.353 98.299 115.077 98.299 113.163 L 98.299 105.295 C 98.299 103.594 98.724 102.105 99.787 101.255 C 100.638 100.404 102.339 99.979 104.891 99.979 L 119.351 99.979 L 119.351 104.232 L 107.23 104.232 C 105.954 104.232 104.891 104.444 104.466 105.082 C 104.04 105.508 103.828 106.358 103.828 107.209 L 119.351 107.209 L 119.351 111.462 L 105.316 111.462"
                  fill="rgb(0,0,0)"/>
            <path d=" M 161.669 104.019 L 154.226 104.019 L 154.226 99.979 L 175.066 99.979 L 175.066 104.019 L 167.198 104.019 L 167.198 118.267 L 161.669 118.267 L 161.669 104.019"
                  fill="rgb(0,0,0)"/>
            <path d=" M 127.857 109.123 C 127.857 106.784 129.771 106.996 129.771 106.996 L 135.3 106.996 L 135.3 110.824 L 129.771 110.824 C 129.559 111.037 127.857 111.037 127.857 109.123 Z  M 146.358 111.037 L 140.829 111.037 L 140.829 107.209 L 146.358 107.209 C 146.358 107.209 148.272 106.996 148.272 109.335 C 148.272 111.037 146.358 111.037 146.358 111.037 Z  M 149.335 103.168 L 140.829 103.168 L 140.829 99.766 L 135.3 99.766 L 135.3 103.168 L 126.582 103.168 C 126.582 103.168 121.691 103.381 121.691 108.91 C 121.691 114.439 126.794 114.652 126.794 114.652 L 135.3 114.652 L 135.3 118.267 L 140.829 118.267 L 140.829 114.652 L 149.123 114.652 C 149.123 114.652 154.226 114.652 154.226 108.91 C 154.226 103.381 149.335 103.168 149.335 103.168 Z "
                  fill="rgb(0,0,0)"/>
            <path d=" M 15.152 107.847 L 7.071 107.847 L 7.071 104.232 L 15.152 104.232 C 16.215 104.232 17.066 105.082 17.066 106.146 C 16.853 106.996 16.215 107.847 15.152 107.847 Z  M 21.106 101.255 C 20.255 100.404 18.554 99.979 16.002 99.979 L 1.542 99.979 L 1.542 118.479 L 7.071 118.479 L 7.071 112.1 L 16.002 112.1 C 18.554 112.1 20.043 111.675 21.106 110.824 C 21.957 109.973 22.382 108.485 22.382 106.784 L 22.382 105.295 C 22.382 103.594 21.957 102.105 21.106 101.255 Z "
                  fill="rgb(0,0,0)"/>
            <path d=" M 192.929 112.312 C 192.929 113.376 192.078 114.226 191.015 114.226 L 182.934 114.226 L 182.934 110.611 L 191.015 110.611 C 192.291 110.399 192.929 111.249 192.929 112.312 Z  M 198.458 112.95 L 198.458 111.462 C 198.458 109.761 198.033 108.485 197.182 107.421 C 196.331 106.571 194.63 106.146 192.078 106.146 L 182.934 106.146 L 182.934 99.766 L 177.618 99.766 L 177.618 118.267 L 192.078 118.267 C 194.63 118.267 196.119 117.841 197.182 116.991 C 198.033 116.14 198.458 114.652 198.458 112.95 Z "
                  fill="rgb(0,0,0)"/>
        </g>
    </g>
</svg>